<svg width="32" height="47" viewBox="0 0 32 47" fill="none" xmlns="http://www.w3.org/2000/svg">
<path d="M14.1919 0.110126C10.3889 0.580578 6.46804 2.9863 3.96886 6.365C0.618518 10.9091 -0.73973 16.9822 0.292538 22.7667C0.709068 25.0975 1.75945 27.9523 2.84604 29.7379C3.51611 30.8285 15.84 48 15.9577 48C16.0754 48 28.3992 30.8285 29.0693 29.7379C29.7484 28.6152 30.7807 26.1988 31.161 24.7982C32.6822 19.2383 31.9941 13.2614 29.2776 8.42857C27.2855 4.90018 24.3969 2.302 20.947 0.954801C18.7828 0.0994335 16.5281 -0.178561 14.1919 0.110126ZM17.823 10.8022C20.3946 11.7431 22.1422 14.2023 22.4773 17.3458C22.8304 20.7031 21.2729 23.9214 18.6198 25.3435C17.7777 25.7925 17.0352 25.9743 15.9577 25.9743C14.8801 25.9743 14.1376 25.7925 13.2955 25.3435C10.1534 23.6648 8.63218 19.4949 9.755 15.6778C10.5428 13.0155 12.562 11.0161 14.9073 10.567C15.6498 10.428 17.1167 10.5456 17.823 10.8022Z" fill="#D9B3E2"/>
</svg>
