<svg width="32" height="47" viewBox="0 0 32 47" fill="none" xmlns="http://www.w3.org/2000/svg">
<path d="M14.1917 0.110126C10.3887 0.580578 6.46784 2.9863 3.96867 6.365C0.618319 10.9091 -0.739929 16.9822 0.29234 22.7667C0.708869 25.0975 1.75925 27.9523 2.84585 29.7379C3.51592 30.8285 15.8398 48 15.9575 48C16.0752 48 28.399 30.8285 29.0691 29.7379C29.7482 28.6152 30.7805 26.1988 31.1608 24.7982C32.682 19.2383 31.9939 13.2614 29.2774 8.42857C27.2853 4.90018 24.3967 2.302 20.9468 0.954801C18.7826 0.0994335 16.5279 -0.178561 14.1917 0.110126ZM17.8228 10.8022C20.3944 11.7431 22.142 14.2023 22.4771 17.3458C22.8302 20.7031 21.2727 23.9214 18.6196 25.3435C17.7775 25.7925 17.035 25.9743 15.9575 25.9743C14.8799 25.9743 14.1374 25.7925 13.2953 25.3435C10.1532 23.6648 8.63198 19.4949 9.7548 15.6778C10.5426 13.0155 12.5618 11.0161 14.9071 10.567C15.6496 10.428 17.1165 10.5456 17.8228 10.8022Z" fill="#6997C0"/>
</svg>
