<svg width="472" height="599" viewBox="0 0 472 599" fill="none" xmlns="http://www.w3.org/2000/svg">
<path d="M210.333 1.79999C154.333 7.66663 96.6001 37.6666 59.8001 79.8C10.4668 136.467 -9.53322 212.2 5.66678 284.333C11.8001 313.4 27.2668 349 43.2668 371.267C53.1334 384.867 234.6 599 236.333 599C238.067 599 419.533 384.867 429.4 371.267C439.4 357.267 454.6 327.133 460.2 309.667C482.6 240.333 472.467 165.8 432.467 105.533C403.133 61.5333 360.6 29.1333 309.8 12.3333C277.933 1.66663 244.733 -1.80005 210.333 1.79999ZM263.8 135.133C301.667 146.867 327.4 177.533 332.333 216.733C337.533 258.6 314.6 298.733 275.533 316.467C263.133 322.067 252.2 324.333 236.333 324.333C220.467 324.333 209.533 322.067 197.133 316.467C150.867 295.533 128.467 243.533 145 195.933C156.6 162.733 186.333 137.8 220.867 132.2C231.8 130.467 253.4 131.933 263.8 135.133Z" fill="#6A1717"/>
</svg>
